<?xml version="1.0" encoding="UTF-8"?>
<svg version="1.1" viewBox="0 0 2000 1247" xmlns="http://www.w3.org/2000/svg">
<g transform="translate(-1.2121 .50486)">
<svg width="2e3" height="1247" data-background-color="#131313" viewBox="0 0 396 247" xmlns="http://www.w3.org/2000/svg" xmlns:xlink="http://www.w3.org/1999/xlink">
<g transform="translate(.24 -.1)">
<svg width="395.52" height="247.2" viewBox="0 0 395.52 247.2">
<svg/>
<svg width="395.52" height="247.2" viewBox="0 0 395.52 247.2">
<g transform="translate(89.694 47.215)">
<svg width="216.13" height="152.77" viewBox="0 0 216.13205496183204 152.7696">
<svg width="216.13" height="152.77" viewBox="0 0 216.13205496183204 152.7696">
<svg width="216.13" height="152.77" viewBox="0 0 216.13205496183204 152.7696">
<svg width="216.13" height="152.77" viewBox="0 0 216.13205496183204 152.7696">
<svg width="216.13" height="152.77" viewBox="0 0 216.13205496183204 152.7696">
<svg width="216.13" height="152.77" viewBox="0 0 216.13205496183204 152.7696">
<g>
<svg width="216.13" height="152.77" data-palette-color="#fdeff0" viewBox="0.5 -37.3 56.6 40.3">
<path class="wordmark-text-0" d="m3.5 0v-34.3h4.4v18.15l13.6-18.15h4.9l-10.3 13.85 10.65 20.45h-5l-8.35-16.75-5.5 6.1v10.65h-4.4zm27.35 0v-34.3h4.4v18.15l13.6-18.15h4.9l-10.3 13.85 10.65 20.45h-5l-8.35-16.75-5.5 6.1v10.65h-4.4z" fill="#fdeff0" data-fill-palette-color="primary"/>
</svg>
</g>
</svg>
</svg>
</svg>
</svg>
</svg>
</svg>
</g>
<path d="m129.87 41.215v-41.215h247.2v247.2h-247.2v-41.215h7.433v33.783h232.34v-232.34h-232.34v33.783z" fill="#f483b4" stroke="transparent" data-fill-palette-color="tertiary"/>
</svg>
</svg>
<rect width="395.52" height="247.2" fill="none" visibility="hidden"/>
</g>
</svg>
</g>
</svg>